<svg version="1.1" id="Layer_1" xmlns="http://www.w3.org/2000/svg" xmlns:xlink="http://www.w3.org/1999/xlink" x="0px" y="0px" viewBox="0 0 440.7 125.6" style="enable-background:new 0 0 440.7 125.6;" xml:space="preserve">
	<path fill="#000000" d="M216.8,19.1C205.4,7.4,189.9,0.7,173.6,0.3H172c-18.6,0-33.5,6.7-46.9,21c-9.2,9.9-19.5,27.4-28,41.6L97,63  c-4.1,7-8.1,13.6-11,17.9C81.3,87.9,72.6,92,62.8,92c-16.2,0-29.4-13.2-29.4-29.4s13.2-29.4,29.4-29.4c10.3,0.1,16.9,3.9,23.2,9.4  c0.9,0.9,2.1,1.3,3.3,1.3c1.2-0.1,2.4-0.7,3.1-1.7L106,22.7c1.2-1.6,1.1-3.9-0.4-5.3C93.9,7.2,79.6,0,62.7,0.1  C28.1,0.3,0,28.1,0,62.5C0.1,97,28.1,125,62.7,125c20.9,0,39.8-9.6,50.7-25.7c3.4-5.1,7.6-12.1,12-19.5l0.5-0.8  c7.6-12.7,17-28.5,23.4-35.4c6.9-7.4,13.5-10.4,22.6-10.4c16.2,0,29.4,13.2,29.4,29.4S188.1,92,171.9,92c-9.8-0.1-15.8-1.8-22.9-9.3  c-1.1-1-2.5-1.7-4-1.7c-1.3,0.1-2.4,0.7-3.1,1.8l-13.2,20.6c-1.2,1.6-1,3.8,0.4,5.2c12.1,10.4,25.4,15.7,42.8,16.4  c34.5,1.3,62.7-28,62.7-62.4C234.6,46.4,228.2,30.7,216.8,19.1"/>
	<path fill="#000000" d="M311.6,53.7c-1.5,2.8-3.8,5.1-6.6,6.6c-3.1,1.6-6.6,2.4-10.1,2.3h-22V24.8h22c3.5-0.1,7,0.7,10.1,2.3  c2.8,1.5,5.1,3.8,6.6,6.6c1.6,3.1,2.4,6.5,2.4,10S313.2,50.7,311.6,53.7 M351.8,120.6l-28.2-39.4c5.8-2.8,10.7-7.1,14.3-12.4  c4.2-6.2,6.4-14,6.4-23.5v-2.6c0-9.5-2.1-17.4-6.3-23.7c-4.4-6.5-10.7-11.5-18-14.3C312.4,1.6,303.5,0,293.2,0h-46.5  c-1.7,0-3,1.3-3,3v119.2c0,1.7,1.3,3,3,3h26.6c1.7,0,3-1.3,3-3V87.4h14.8l25,36.6c0.6,0.8,1.5,1.3,2.5,1.3h30.8c1.7,0,3-1.4,2.9-3.1  C352.4,121.7,352.2,121.1,351.8,120.6"/>
	<path fill="#000000" d="M437.6,97.5l-44.3-0.8V75.5h41.8c1.7,0,3-1.3,3-3V50.4c0-1.7-1.3-3-3-3l0,0h-41.8V28.2h44.4c1.7,0,3-1.3,3-3  V3.1c0-1.7-1.3-3-3-3h-73.3c-1.7,0-3,1.3-3,3v118.7c0,1.7,1.3,3,3,3l73.2,0.8c1.7,0,3-1.3,3-3v-22.1  C440.6,98.8,439.3,97.5,437.6,97.5"/>
</svg>