<svg width="200" height="27" viewBox="0 0 200 27" fill="none" xmlns="http://www.w3.org/2000/svg">
<g clip-path="url(#clip0_1206_2520)">
<path d="M73.1537 0.328613H72.4727V26.6712H73.1537V0.328613Z" fill="#000000"/>
<path d="M21.5194 0.522907C19.6883 1.62861 16.0109 4.81123 12.0006 8.62142C11.6223 8.32258 12.1973 8.78578 11.8341 8.48694C13.9528 4.84112 15.6931 0.761978 15.8142 0.313721H21.4588C21.5194 0.537849 21.474 0.328663 21.5194 0.522907ZM10.4419 10.265C11.4709 12.0282 19.2797 22.2036 23.5926 26.6712H16.6162C14.0285 23.13 7.46065 14.7028 6.40133 13.7913L10.4419 10.265ZM5.59927 0.328663C5.47821 3.15268 5.40254 7.93409 5.40254 13.358C5.40254 17.5417 5.44794 24.1162 5.59927 26.6862H0C0.151332 25.1023 0.272397 19.7232 0.272397 13.7764C0.272397 9.14438 0.196731 4.18367 0 0.343605H5.59927V0.328663Z" fill="#000000"/>
<path d="M40.1786 4.00443C39.316 2.46541 38.0448 1.09076 36.1077 0.209187C36.1834 -0.119535 36.0775 0.328722 36.1531 0L41.0714 0.328722L40.3753 3.97454C40.224 4.00443 40.3602 3.97454 40.1786 4.00443ZM31.2803 27L25.4237 26.5966L26.2712 21.6956C26.483 21.6657 26.2712 21.6956 26.483 21.6657C27.3002 23.6829 28.98 25.7748 31.3257 26.7759C31.25 27.1345 31.3559 26.6563 31.2803 27ZM29.434 4.81129C29.434 7.66519 31.7191 8.99502 34.1253 10.0858C38.7712 12.1627 42.2518 14.2994 42.2518 19.2003C42.2518 23.2645 39.5884 26.492 34.8971 27C34.7609 26.3575 34.9879 27.4333 34.8517 26.7759C37.3941 25.984 38.5896 24.2507 38.5896 21.9347C38.5896 18.9613 36.4558 17.497 32.9449 15.7936C28.6017 13.6121 25.2119 11.6547 25.2119 7.21693C25.2119 3.36193 27.9812 0.463199 32.9449 0.0149419C33.066 0.657443 32.8541 -0.418373 32.9903 0.224128C30.5387 0.956281 29.434 2.65966 29.434 4.81129Z" fill="#000000"/>
<path d="M62.3489 21.7254V26.6861H54.8731C54.8126 26.3425 54.8882 26.8206 54.8277 26.462C57.5517 25.4609 60.6994 23.3391 62.1521 21.6507C62.3035 21.7105 62.1824 21.6656 62.3489 21.7254ZM61.5468 0.328613V4.7813C61.3803 4.84107 61.5165 4.79624 61.3501 4.85601C59.8973 3.04804 57.0977 1.28489 54.6007 0.552742C54.6612 0.104485 54.5704 0.77687 54.631 0.328613H61.5468ZM60.2908 10.8776V15.136C60.1848 15.1958 60.2151 15.1659 60.1092 15.2257C58.278 13.9257 56.1745 13.3878 54.1316 12.9695C54.1316 12.6557 54.1316 13.0591 54.1316 12.7453C56.4015 12.3718 58.6866 11.6097 60.1092 10.7879C60.2151 10.8328 60.1848 10.8178 60.2908 10.8776ZM52.2853 0.328613C52.1642 4.19856 52.0886 8.60642 52.0886 14.0303C52.0886 18.2141 52.1642 24.7885 52.2853 26.6712H46.686C46.8374 25.0873 46.9584 19.7083 46.9584 13.7614C46.9584 9.12939 46.8828 4.16868 46.686 0.328613H52.2853Z" fill="#000000"/>
<path d="M84.9121 6.20093H94.6125V8.48704H87.8177V13.0891H93.1597V15.3155H87.8177V21.6658H84.9121V6.20093Z" fill="#000000"/>
<path d="M95.6264 16.1222V15.9429C95.6264 12.4465 98.1385 10.1006 101.513 10.1006C104.858 10.1006 107.385 12.4166 107.385 15.8682V16.0475C107.385 19.5737 104.873 21.8599 101.498 21.8599C98.1234 21.8599 95.6264 19.5588 95.6264 16.1222ZM104.661 16.0773V15.9279C104.661 13.597 103.48 12.1626 101.513 12.1626C99.5459 12.1626 98.3352 13.5671 98.3352 15.898V16.0773C98.3352 18.3933 99.5005 19.8427 101.513 19.8427C103.48 19.8427 104.661 18.3933 104.661 16.0773Z" fill="#000000"/>
<path d="M109.655 17.6014V10.3545H112.303V17.2876C112.303 18.991 113.03 19.7679 114.558 19.7679C115.981 19.7679 117.237 18.8565 117.237 17.0635V10.3396H119.885V21.6656H117.237V19.8875C116.662 20.9932 115.466 21.8747 113.605 21.8747C111.35 21.8747 109.655 20.6047 109.655 17.6014Z" fill="#000000"/>
<path d="M123.018 10.3548H125.666V12.1478C126.211 11.0421 127.482 10.1157 129.374 10.1157C131.674 10.1157 133.293 11.4306 133.293 14.5535V21.6658H130.645V14.7925C130.645 13.0892 129.949 12.3122 128.375 12.3122C126.892 12.3122 125.681 13.2236 125.681 15.0167V21.6658H123.033V10.3548H123.018Z" fill="#000000"/>
<path d="M135.578 16.1969V16.0176C135.578 12.4017 137.742 10.1156 140.723 10.1156C142.585 10.1156 143.75 10.9523 144.386 12.0879V5.125H147.034V21.6657H144.386V19.7681C143.765 20.8887 142.312 21.8898 140.617 21.8898C137.742 21.8749 135.578 19.8726 135.578 16.1969ZM144.476 16.0625V15.8832C144.476 13.4028 143.311 12.1626 141.389 12.1626C139.437 12.1626 138.302 13.5074 138.302 15.9429V16.1222C138.302 18.6026 139.573 19.7979 141.283 19.7979C143.114 19.7979 144.476 18.5876 144.476 16.0625Z" fill="#000000"/>
<path d="M149.349 18.528C149.349 15.8832 151.937 14.9419 155.221 14.9419H156.643V14.3592C156.643 12.85 156.114 12.088 154.57 12.088C153.193 12.088 152.512 12.7305 152.376 13.8661H149.818C150.03 11.2214 152.164 10.1306 154.721 10.1306C157.279 10.1306 159.292 11.1616 159.292 14.2546V21.6658H156.689V20.2762C155.947 21.2474 154.933 21.8749 153.193 21.8749C151.089 21.8749 149.349 20.8888 149.349 18.528ZM156.643 17.7062V16.5855H155.281C153.269 16.5855 151.982 17.0338 151.982 18.4234C151.982 19.3796 152.512 20.0072 153.829 20.0072C155.433 19.9923 156.643 19.1555 156.643 17.7062Z" fill="#000000"/>
<path d="M162.772 18.498V12.327H161.244V10.3546H162.772V7.87427H165.42V10.3546H167.933V12.327H165.42V18.2738C165.42 19.2749 165.905 19.7232 166.737 19.7232C167.267 19.7232 167.66 19.6634 168.023 19.514V21.5909C167.615 21.7403 167.04 21.8748 166.222 21.8748C163.952 21.8599 162.772 20.6496 162.772 18.498Z" fill="#000000"/>
<path d="M170.203 7.00767C170.203 6.14104 170.899 5.49854 171.776 5.49854C172.654 5.49854 173.35 6.14104 173.35 7.00767C173.35 7.84441 172.654 8.50186 171.776 8.50186C170.899 8.50186 170.203 7.84441 170.203 7.00767ZM170.475 10.3547H173.123V21.6657H170.475V10.3547Z" fill="#000000"/>
<path d="M175.59 16.1222V15.9429C175.59 12.4465 178.102 10.1006 181.477 10.1006C184.822 10.1006 187.349 12.4166 187.349 15.8682V16.0475C187.349 19.5737 184.837 21.8599 181.462 21.8599C178.087 21.8599 175.59 19.5588 175.59 16.1222ZM184.625 16.0773V15.9279C184.625 13.597 183.444 12.1626 181.477 12.1626C179.51 12.1626 178.299 13.5671 178.299 15.898V16.0773C178.299 18.3933 179.464 19.8427 181.477 19.8427C183.444 19.8427 184.625 18.3933 184.625 16.0773Z" fill="#000000"/>
<path d="M189.725 10.3548H192.373V12.1478C192.918 11.0421 194.189 10.1157 196.081 10.1157C198.381 10.1157 200 11.4306 200 14.5535V21.6658H197.352V14.7925C197.352 13.0892 196.656 12.3122 195.082 12.3122C193.599 12.3122 192.388 13.2236 192.388 15.0167V21.6658H189.74V10.3548H189.725Z" fill="#000000"/>
</g>
<defs>
<clipPath id="clip0_1206_2520">
<rect width="200" height="27" fill="#000000"/>
</clipPath>
</defs>
</svg>