<svg width="138" height="30" viewBox="0 0 138 30" fill="none" xmlns="http://www.w3.org/2000/svg">
<path d="M2.13281 25.551V5.58545H14.2762V25.551H10.8575V8.676H5.55156V25.551H2.13281ZM18.8603 25.551V22.4604H22.8808V8.676H18.8603V5.58545H30.3473V8.676H26.3269V22.4604H30.3473V25.551H18.8603ZM33.4272 29.38V22.6792H34.4391C34.7491 22.1687 35.0682 21.3755 35.3964 20.2998C35.7246 19.224 35.8978 18.0297 35.916 16.7169L36.0801 5.58545H46.8287V22.6792H48.5791V29.38H45.4338V25.551H36.5724V29.38H33.4272ZM37.8579 22.6792H43.5467V8.48455H39.2801L39.1433 16.7169C39.1433 18.048 38.9975 19.2514 38.7057 20.3271C38.414 21.4029 38.1314 22.1869 37.8579 22.6792ZM51.3034 25.551V5.58545H57.4298C59.3443 5.58545 60.8668 6.0504 61.9973 6.9803C63.146 7.9102 63.7203 9.15918 63.7203 10.7273C63.7203 11.8213 63.4286 12.7512 62.8451 13.517C62.2799 14.2645 61.505 14.7568 60.5204 14.9939C61.6326 15.2309 62.5169 15.787 63.1733 16.6622C63.8479 17.5192 64.1853 18.5858 64.1853 19.8622C64.1853 21.0109 63.9118 22.0137 63.3648 22.8707C62.836 23.7276 62.0884 24.3932 61.1221 24.8672C60.1739 25.3231 59.0435 25.551 57.7307 25.551H51.3034ZM54.6401 13.8178H57.3751C58.2685 13.8178 58.9796 13.5808 59.5084 13.1067C60.0372 12.6144 60.3016 11.9489 60.3016 11.1102C60.3016 10.2897 60.0372 9.64237 59.5084 9.1683C58.9979 8.676 58.2868 8.42985 57.3751 8.42985H54.6401V13.8178ZM54.6401 22.7066H57.5119C58.5147 22.7066 59.2987 22.4422 59.864 21.9134C60.4474 21.3664 60.7392 20.628 60.7392 19.6981C60.7392 18.7682 60.4474 18.0206 59.864 17.4554C59.2987 16.8719 58.5147 16.5802 57.5119 16.5802H54.6401V22.7066ZM66.554 25.551L71.5864 5.58545H75.9898L81.0495 25.551H77.5487L76.4547 20.71H71.1488L70.0548 25.551H66.554ZM71.7779 17.9203H75.8257L74.6223 12.5597C74.4217 11.6663 74.2485 10.864 74.1026 10.1529C73.9568 9.42357 73.8565 8.8948 73.8018 8.5666C73.7471 8.8948 73.6468 9.42357 73.5009 10.1529C73.3551 10.864 73.1818 11.6572 72.9813 12.5324L71.7779 17.9203ZM82.461 25.6877V22.5698H83.1448C84.4029 22.5698 85.0502 21.3755 85.0866 18.987L85.3054 5.58545H96.2728V25.551H92.854V8.676H88.6695L88.478 18.987C88.4416 21.1567 87.9766 22.816 87.0832 23.9647C86.208 25.1134 84.9681 25.6877 83.3636 25.6877H82.461Z" fill="black"/>
<mask id="mask0_2201_4231" style="mask-type:luminance" maskUnits="userSpaceOnUse" x="107" y="0" width="31" height="30">
<path d="M137.083 0.449219H107V29.2616H137.083V0.449219Z" fill="white"/>
</mask>
<g mask="url(#mask0_2201_4231)">
<path d="M122.041 29.533H107V14.4912C107 16.4664 107.389 18.4224 108.145 20.2473C108.9 22.0723 110.008 23.7305 111.405 25.1273C112.802 26.524 114.46 27.632 116.285 28.388C118.11 29.1439 120.066 29.533 122.041 29.533Z" fill="black"/>
<path d="M111.404 4.85457C110.006 6.24999 108.897 7.908 108.141 9.73334C107.385 11.5587 106.997 13.5154 107 15.491V0.449232H122.041C120.065 0.446583 118.108 0.834403 116.283 1.59042C114.458 2.34643 112.8 3.45574 111.404 4.85457Z" fill="black"/>
<path d="M137.08 0.449219V15.491C137.082 13.5154 136.695 11.5587 135.939 9.73332C135.183 7.90798 134.074 6.24998 132.675 4.85455C131.28 3.45608 129.622 2.34709 127.797 1.59126C125.971 0.83543 124.015 0.44766 122.039 0.450221L137.08 0.449219Z" fill="black"/>
<path d="M132.675 25.1276C134.074 23.7322 135.183 22.0742 135.939 20.2488C136.695 18.4235 137.082 16.4668 137.08 14.4912V29.533H122.039C124.015 29.5354 125.971 29.1475 127.797 28.3915C129.622 27.6355 131.28 26.5263 132.675 25.1276Z" fill="black"/>
<path d="M117.686 20.8553V18.5301H112.133V14.9035L116.888 8.18817H119.751L114.562 15.6323V16.2743H117.686V13.5674H120.289V20.8553H117.686ZM122.885 20.8553V18.5648L127.344 14.1053C127.668 13.7698 127.911 13.4343 128.073 13.0989C128.246 12.7634 128.333 12.4163 128.333 12.0577C128.333 11.514 128.194 11.0976 127.917 10.8084C127.639 10.5076 127.257 10.3572 126.772 10.3572C126.274 10.3572 125.875 10.5134 125.574 10.8257C125.285 11.1265 125.14 11.5487 125.14 12.0924H122.538C122.538 11.2595 122.711 10.5423 123.058 9.94074C123.417 9.32763 123.914 8.85334 124.55 8.51786C125.198 8.18239 125.956 8.01465 126.824 8.01465C127.657 8.01465 128.38 8.17082 128.993 8.48316C129.606 8.78393 130.08 9.21773 130.416 9.78457C130.763 10.3514 130.936 11.0282 130.936 11.8148C130.936 12.532 130.768 13.2145 130.433 13.8623C130.109 14.5102 129.583 15.1869 128.854 15.8926L126.164 18.5127H131.075V20.8553H122.885Z" fill="black"/>
</g>
</svg>
