<?xml version="1.0" standalone="no"?>
<!DOCTYPE svg PUBLIC "-//W3C//DTD SVG 20010904//EN"
 "http://www.w3.org/TR/2001/REC-SVG-20010904/DTD/svg10.dtd">
<svg version="1.0" xmlns="http://www.w3.org/2000/svg"
 width="952.000000pt" height="952.000000pt" viewBox="0 0 952.000000 952.000000"
 preserveAspectRatio="xMidYMid meet">
<metadata>
Created by potrace 1.14, written by Peter Selinger 2001-2017
</metadata>
<g transform="translate(0.000000,952.000000) scale(0.100000,-0.100000)"
fill="#000000" stroke="none">
<path d="M3303 9504 c-97 -35 -154 -139 -179 -324 -9 -69 -10 -342 -1 -435 13
-145 53 -318 112 -489 l35 -103 -81 -109 c-224 -299 -392 -616 -502 -944 -32
-96 -79 -284 -92 -370 -3 -19 -10 -57 -15 -85 -12 -62 -16 -95 -35 -272 -20
-180 -47 -320 -115 -593 -76 -302 -98 -430 -99 -586 -1 -62 -5 -85 -19 -100
-126 -139 -183 -293 -184 -494 0 -63 2 -126 5 -140 3 -14 8 -35 11 -47 4 -13
8 -31 10 -40 14 -60 71 -183 119 -255 58 -90 181 -221 259 -277 l47 -34 -33
-66 c-63 -124 -116 -299 -133 -436 -15 -114 -8 -446 11 -555 3 -14 7 -46 11
-73 8 -67 60 -269 80 -310 16 -34 15 -38 -10 -113 -20 -61 -35 -87 -67 -116
-74 -68 -185 -118 -363 -162 -90 -22 -124 -29 -205 -42 -14 -3 -47 -9 -75 -14
-27 -5 -66 -12 -85 -15 -19 -3 -42 -8 -50 -10 -8 -2 -26 -6 -40 -9 -14 -2 -47
-10 -75 -16 -27 -6 -58 -13 -69 -15 -88 -19 -275 -71 -396 -112 -182 -62 -253
-161 -253 -353 0 -149 43 -233 171 -340 166 -139 233 -240 336 -505 59 -150
85 -194 139 -239 55 -45 101 -64 191 -80 74 -13 259 -14 356 -2 81 10 201 27
230 32 14 3 34 6 45 8 38 6 151 27 220 41 79 15 114 21 200 30 33 4 71 9 85
11 31 6 468 6 495 0 11 -2 69 -7 129 -11 60 -4 118 -9 130 -11 11 -2 44 -6 71
-9 65 -5 141 -14 185 -21 19 -3 49 -7 65 -8 17 -2 55 -7 85 -11 78 -10 88 -11
155 -19 33 -4 74 -9 90 -11 17 -2 51 -6 78 -9 26 -4 68 -9 95 -12 57 -7 263
-7 312 0 19 3 58 8 85 11 62 7 227 35 235 40 3 2 22 6 42 9 45 7 368 90 453
116 95 29 205 75 336 141 l122 61 41 -48 c106 -125 227 -215 389 -292 37 -18
74 -32 80 -32 7 0 17 -4 22 -9 23 -20 324 -92 450 -106 33 -4 69 -9 80 -12 26
-5 238 -4 289 2 37 4 72 9 141 21 169 28 385 111 540 208 390 244 578 591 578
1066 -1 105 -9 208 -25 285 -5 28 -12 64 -14 80 -10 57 -66 210 -100 273 l-35
64 55 111 c45 93 106 252 121 317 2 8 15 56 28 105 23 83 39 155 53 231 3 16
9 47 14 69 31 141 34 472 5 645 -2 14 -11 72 -20 129 -9 58 -18 107 -19 110
-2 3 -7 24 -10 45 -11 68 -46 197 -83 304 -34 101 -35 103 -17 130 27 41 74
135 74 150 0 6 4 12 9 12 5 0 11 10 14 22 3 13 15 56 26 96 27 95 32 135 36
272 5 152 -14 224 -91 346 -46 74 -99 119 -191 166 -45 23 -80 44 -78 47 2 4
6 38 10 76 3 39 8 77 10 85 17 63 25 566 12 745 -7 96 -23 239 -32 298 -3 15
-7 42 -10 60 -93 564 -290 1055 -578 1447 -71 96 -197 244 -229 268 -23 17
-23 28 6 158 38 169 53 306 50 476 -3 195 -41 334 -107 395 -55 51 -124 83
-178 85 -55 1 -156 -11 -189 -24 -14 -5 -33 -11 -43 -13 -103 -21 -407 -164
-607 -285 -132 -79 -136 -81 -175 -72 -186 45 -309 72 -360 78 -33 3 -63 8
-67 10 -14 9 -215 19 -378 18 -239 0 -450 -13 -572 -35 -32 -5 -70 -12 -85
-15 -50 -8 -167 -46 -205 -65 -21 -11 -53 -33 -72 -49 -18 -17 -36 -30 -39
-30 -3 0 -61 35 -129 79 -67 43 -145 91 -173 106 -450 252 -739 350 -882 299z"/>
</g>
</svg>
